HIERARCHY
ROOT Hips
{
  OFFSET 56.6817 57.9093 -10.3722
  CHANNELS 6 Xposition Yposition Zposition Zrotation Xrotation Yrotation
  JOINT spine
  {
    OFFSET 0 6.84637 0.3937
    CHANNELS 3 Zrotation Xrotation Yrotation
    JOINT spine1
    {
      OFFSET 0 9.49621 0
      CHANNELS 3 Zrotation Xrotation Yrotation
      JOINT spine2
      {
        OFFSET 0 9.09909 0
        CHANNELS 3 Zrotation Xrotation Yrotation
        JOINT Neck
        {
          OFFSET 0 23.3612 1.11378
          CHANNELS 3 Zrotation Xrotation Yrotation
          JOINT Head
          {
            OFFSET 0 7.05802 0
            CHANNELS 3 Zrotation Xrotation Yrotation
            End Site
            {
              OFFSET 0 17.0844 -5.63419
            }
          }
        }
        JOINT RightShoulder
        {
          OFFSET -3.83136 9.82631 -0.533491
          CHANNELS 3 Zrotation Xrotation Yrotation
          JOINT RightArm
          {
            OFFSET 0 12.8881 0
            CHANNELS 3 Zrotation Xrotation Yrotation
            JOINT RightArmRoll
            {
              OFFSET 0 6.50617 0
              CHANNELS 3 Zrotation Xrotation Yrotation
              JOINT RightForeArm
              {
                OFFSET 0 18.9501 0
                CHANNELS 3 Zrotation Xrotation Yrotation
                JOINT RightForeArmRoll
                {
                  OFFSET 0 7.30093 0
                  CHANNELS 3 Zrotation Xrotation Yrotation
                  JOINT RightHand
                  {
                    OFFSET 0 14.6514 0
                    CHANNELS 3 Zrotation Xrotation Yrotation
                    End Site
                    {
                      OFFSET 0 0 0
                    }
                  }
                }
              }
            }
          }
        }
        JOINT LeftShoulder
        {
          OFFSET 3.83136 9.82631 -0.533491
          CHANNELS 3 Zrotation Xrotation Yrotation
          JOINT LeftArm
          {
            OFFSET 0 12.8881 0
            CHANNELS 3 Zrotation Xrotation Yrotation
            JOINT LeftArmRoll
            {
              OFFSET 0 6.50617 0
              CHANNELS 3 Zrotation Xrotation Yrotation
              JOINT LeftForeArm
              {
                OFFSET 0 18.9501 0
                CHANNELS 3 Zrotation Xrotation Yrotation
                JOINT LeftForeArmRoll
                {
                  OFFSET 0 7.30093 0
                  CHANNELS 3 Zrotation Xrotation Yrotation
                  JOINT LeftHand
                  {
                    OFFSET 0 14.6514 0
                    CHANNELS 3 Zrotation Xrotation Yrotation
                    End Site
                    {
                      OFFSET 0 0 0
                    }
                  }
                }
              }
            }
          }
        }
      }
    }
  }
  JOINT RightUpLeg
  {
    OFFSET -6.06837 -1.11278 -0.933477
    CHANNELS 3 Zrotation Xrotation Yrotation
    JOINT RightUpLegRoll
    {
      OFFSET 0 17.1796 0
      CHANNELS 3 Zrotation Xrotation Yrotation
      JOINT RightLeg
      {
        OFFSET 0 -21.2743 0
        CHANNELS 3 Zrotation Xrotation Yrotation
        JOINT RightLegRoll
        {
          OFFSET 0 21.3439 0
          CHANNELS 3 Zrotation Xrotation Yrotation
          JOINT RightFoot
          {
            OFFSET 0 17.7652 0
            CHANNELS 3 Zrotation Xrotation Yrotation
            JOINT RightToeBase
            {
              OFFSET 0 14.8508 0
              CHANNELS 3 Zrotation Xrotation Yrotation
              End Site
              {
                OFFSET 0.0062947 7.19214 -0.829004
              }
            }
          }
        }
      }
    }
  }
  JOINT LeftUpLeg
  {
    OFFSET 6.06837 -1.11278 -0.933477
    CHANNELS 3 Zrotation Xrotation Yrotation
    JOINT LeftUpLegRoll
    {
      OFFSET 0 17.1797 0
      CHANNELS 3 Zrotation Xrotation Yrotation
      JOINT LeftLeg
      {
        OFFSET 0 21.2742 0
        CHANNELS 3 Zrotation Xrotation Yrotation
        JOINT LeftLegRoll
        {
          OFFSET 0 21.5412 0
          CHANNELS 3 Zrotation Xrotation Yrotation
          JOINT LeftFoot
          {
            OFFSET 0 17.5679 0
            CHANNELS 3 Zrotation Xrotation Yrotation
            JOINT LeftToeBase
            {
              OFFSET 0 14.8508 0
              CHANNELS 3 Zrotation Xrotation Yrotation
              End Site
              {
                OFFSET -0.0282102 7.19214 -0.829005
              }
            }
          }
        }
      }
    }
  }
}
MOTION
Frames: 11
Frame Time: 0.00208333
57.6098 91.7473 31.3966 1.15628 -4.17646 -1.16407 -0.0292394 -1.59389 -0.05644 -0.0593648 0.804648 -0.11229 -0.0580798 2.44972 -0.111662 -3.7419 27.8022 1.73808 0.668249 -7.98434 0.260083 68.5378 6.51877 2.16749 98.5373 19.5378 -7.24434 4.46974e-006 1.56034e-007 1.49718e-006 20.0953 26.6458 -5.30376 5.54701e-006 -8.78788e-006 -2.99999 8.02911 -4.95156 0.697747 -68.3678 4.16017 -1.00894 -101.287 27.3336 -2.73436 -1.50077e-006 -1.10196e-005 6.31442e-006 -21.7531 11.3867 2.36649 3.26402e-006 -1.40083e-006 3.00519 -8.02958 -4.95138 -0.697696 174.303 0.034031 2.38288 180 7.01537e-015 178.88 177.42 7.04219 179.941 -1.03311e-006 3.61795e-006 0.0857054 -18.8144 68.1202 19.6414 8.13649 25.2327 -3.48774 -176.733 -3.65886 0.743518 4.54188e-006 -4.6773e-006 -1.18455 -1.29852 -5.35332 0.089602 -1.37232e-006 -3.99963e-006 -0.0427448 18.5418 67.6774 -19.2713 -8.13649 25.2327 3.48774 
57.6236 91.7636 31.3907 1.14426 -4.13728 -1.17703 -0.0289558 -1.59461 -0.0572962 -0.0586893 0.803959 -0.113428 -0.0573838 2.44903 -0.112791 -3.74667 27.8267 1.74494 0.680662 -8.01511 0.266396 68.5674 6.55675 2.18091 98.5342 19.4929 -7.1148 4.46974e-006 1.56034e-007 1.49718e-006 20.0713 26.4103 -5.25031 5.54701e-006 -8.78788e-006 -2.99999 8.02911 -4.95156 0.697747 -68.3331 4.15265 -1.01059 -101.295 27.2448 -2.81427 -1.50077e-006 -1.10196e-005 6.31442e-006 -21.7376 11.2269 2.32778 3.26402e-006 -1.40083e-006 3.00519 -8.02958 -4.95138 -0.697696 174.328 0.0797815 2.3595 180 7.01537e-015 178.88 177.432 7.02957 179.94 -1.03311e-006 3.61795e-006 0.0853249 -18.8047 68.1078 19.6308 8.13649 25.2327 -3.48774 -176.715 -3.5608 0.741066 4.54188e-006 -4.6773e-006 -1.18435 -1.29234 -5.44021 0.0921506 -1.37232e-006 -3.99963e-006 -0.0459391 18.5726 67.7179 -19.304 -8.13649 25.2327 3.48774 
57.6153 91.758 31.3733 1.13204 -4.09783 -1.19026 -0.0287118 -1.59548 -0.0582212 -0.0580771 0.803013 -0.114665 -0.0567496 2.44808 -0.114017 -3.75093 27.8513 1.75171 0.693106 -8.04627 0.272851 68.5979 6.59552 2.1946 98.5303 19.4471 -6.98629 4.46974e-006 1.56034e-007 1.49718e-006 20.0492 26.1759 -5.19757 5.54701e-006 -8.78788e-006 -2.99999 8.02911 -4.95156 0.697747 -68.297 4.14461 -1.0122 -101.305 27.1552 -2.89533 -1.50077e-006 -1.10196e-005 6.31442e-006 -21.7215 11.0659 2.28885 3.26402e-006 -1.40083e-006 3.00519 -8.02958 -4.95138 -0.697696 174.354 0.125636 2.33366 180 7.01537e-015 178.88 177.446 7.01692 179.939 -1.03311e-006 3.61795e-006 0.0849381 -18.7954 68.0956 19.6204 8.13649 25.2327 -3.48774 -176.696 -3.45942 0.738942 4.54188e-006 -4.6773e-006 -1.18416 -1.28547 -5.53264 0.0948647 -1.37232e-006 -3.99963e-006 -0.0493596 18.6058 67.7615 -19.3394 -8.13649 25.2327 3.48774 
57.5885 91.7613 31.3598 1.1197 -4.05818 -1.20368 -0.0284958 -1.59644 -0.0591943 -0.0575092 0.801888 -0.115971 -0.0561587 2.44696 -0.115311 -3.75482 27.876 1.75843 0.705574 -8.07768 0.279406 68.6288 6.63485 2.20847 98.526 19.4007 -6.85854 4.46974e-006 1.56034e-007 1.49718e-006 20.0285 25.9422 -5.14541 5.54701e-006 -8.78788e-006 -2.99999 8.02911 -4.95156 0.697747 -68.2598 4.13621 -1.01379 -101.315 27.0651 -2.97716 -1.50077e-006 -1.10196e-005 6.31442e-006 -21.705 10.904 2.24978 3.26402e-006 -1.40083e-006 3.00519 -8.02958 -4.95138 -0.697696 174.382 0.171565 2.30612 180 7.01537e-015 178.881 177.462 7.00425 179.938 -1.03311e-006 3.61795e-006 0.0845467 -18.7861 68.0836 19.61 8.13649 25.2327 -3.48774 -176.677 -3.35572 0.737048 4.54188e-006 -4.6773e-006 -1.18397 -1.2781 -5.62895 0.0976953 -1.37232e-006 -3.99963e-006 -0.0529384 18.6409 67.8072 -19.3767 -8.13649 25.2327 3.48774 
57.5627 91.7553 31.3422 1.1073 -4.01842 -1.21721 -0.0282956 -1.59746 -0.0601949 -0.0569667 0.80066 -0.117317 -0.0555925 2.44573 -0.116644 -3.75852 27.9007 1.76512 0.718059 -8.10925 0.286019 68.66 6.67449 2.22245 98.5215 19.3538 -6.73125 4.46974e-006 1.56034e-007 1.49718e-006 20.009 25.7089 -5.09371 5.54701e-006 -8.78788e-006 -2.99999 8.02911 -4.95156 0.697747 -68.2221 4.1276 -1.01536 -101.327 26.9746 -3.05936 -1.50077e-006 -1.10196e-005 6.31442e-006 -21.6883 10.7416 2.21067 3.26402e-006 -1.40083e-006 3.00519 -8.02958 -4.95138 -0.697696 174.41 0.217537 2.2776 180 7.01537e-015 178.881 177.479 6.9916 179.937 -1.03311e-006 3.61795e-006 0.0841529 -18.7769 68.0716 19.5998 8.13649 25.2327 -3.48774 -176.658 -3.2507 0.735286 4.54188e-006 -4.6773e-006 -1.1838 -1.27044 -5.72748 0.100593 -1.37232e-006 -3.99963e-006 -0.0566076 18.6771 67.8542 -19.4152 -8.13649 25.2327 3.48774 
57.5682 91.7593 31.3277 1.0949 -3.97864 -1.23076 -0.0280994 -1.59849 -0.0612023 -0.0564306 0.799407 -0.118673 -0.0550326 2.44447 -0.117987 -3.76217 27.9255 1.77181 0.730554 -8.14085 0.292647 68.6913 6.71422 2.23645 98.5172 19.3068 -6.60414 4.46974e-006 1.56034e-007 1.49718e-006 19.99 25.4757 -5.04233 5.54701e-006 -8.78788e-006 -2.99999 8.02911 -4.95156 0.697747 -68.1843 4.11894 -1.01692 -101.338 26.884 -3.14156 -1.50077e-006 -1.10196e-005 6.31442e-006 -21.6718 10.579 2.17159 3.26402e-006 -1.40083e-006 3.00519 -8.02958 -4.95138 -0.697696 174.438 0.26352 2.24884 180 7.01537e-015 178.881 177.496 6.97894 179.936 -1.03311e-006 3.61795e-006 0.0837583 -18.7678 68.0597 19.5895 8.13649 25.2327 -3.48774 -176.639 -3.14535 0.73356 4.54188e-006 -4.6773e-006 -1.18362 -1.2627 -5.82657 0.103508 -1.37232e-006 -3.99963e-006 -0.0602995 18.7137 67.9014 -19.4541 -8.13649 25.2327 3.48774 
57.5587 91.757 31.3137 1.08255 -3.93891 -1.24426 -0.0278954 -1.5995 -0.0621961 -0.0558819 0.798205 -0.12001 -0.0544603 2.44327 -0.11931 -3.76593 27.9502 1.77851 0.743052 -8.17238 0.299249 68.7224 6.75378 2.25041 98.5133 19.2599 -6.47691 4.46974e-006 1.56034e-007 1.49718e-006 19.9712 25.2421 -4.99116 5.54701e-006 -8.78788e-006 -2.99999 8.02911 -4.95156 0.697747 -68.1467 4.11039 -1.0185 -101.35 26.7935 -3.22339 -1.50077e-006 -1.10196e-005 6.31442e-006 -21.6556 10.4167 2.13262 3.26402e-006 -1.40083e-006 3.00519 -8.02958 -4.95138 -0.697696 174.466 0.309485 2.22056 180 7.01537e-015 178.881 177.513 6.96627 179.935 -1.03311e-006 3.61795e-006 0.0833651 -18.7586 68.0477 19.5793 8.13649 25.2327 -3.48774 -176.62 -3.04066 0.731772 4.54188e-006 -4.6773e-006 -1.18344 -1.25509 -5.92455 0.106392 -1.37232e-006 -3.99963e-006 -0.0639461 18.75 67.9481 -19.4926 -8.13649 25.2327 3.48774 
57.5442 91.7544 31.29 1.07033 -3.89932 -1.25762 -0.0276715 -1.60043 -0.0631554 -0.0553016 0.797131 -0.121296 -0.0538573 2.4422 -0.120585 -3.76995 27.9749 1.78526 0.755544 -8.20372 0.30578 68.7531 6.79295 2.26424 98.5101 19.2132 -6.34927 4.46974e-006 1.56034e-007 1.49718e-006 19.9522 25.008 -4.94006 5.54701e-006 -8.78788e-006 -2.99999 8.02911 -4.95156 0.697747 -68.1099 4.10209 -1.02009 -101.361 26.7033 -3.30447 -1.50077e-006 -1.10196e-005 6.31442e-006 -21.6402 10.255 2.09385 3.26402e-006 -1.40083e-006 3.00519 -8.02958 -4.95138 -0.697696 174.493 0.3554 2.19351 180 7.01537e-015 178.882 177.529 6.95361 179.934 -1.03311e-006 3.61795e-006 0.0829751 -18.7494 68.0356 19.569 8.13649 25.2327 -3.48774 -176.601 -2.93763 0.729824 4.54188e-006 -4.6773e-006 -1.18326 -1.24782 -6.01976 0.109195 -1.37232e-006 -3.99963e-006 -0.0674797 18.7853 67.9932 -19.5301 -8.13649 25.2327 3.48774 
57.5428 91.7571 31.2777 1.05829 -3.85995 -1.27076 -0.0274158 -1.60125 -0.0640597 -0.0546706 0.796262 -0.122503 -0.0532048 2.44133 -0.121781 -3.7744 27.9994 1.79208 0.768024 -8.23476 0.312199 68.7832 6.83147 2.27787 98.5079 19.1669 -6.22094 4.46974e-006 1.56034e-007 1.49718e-006 19.9325 24.773 -4.88893 5.54701e-006 -8.78788e-006 -2.99999 8.02911 -4.95156 0.697747 -68.0742 4.09421 -1.02172 -101.372 26.6138 -3.38442 -1.50077e-006 -1.10196e-005 6.31442e-006 -21.6257 10.0942 2.05536 3.26402e-006 -1.40083e-006 3.00519 -8.02958 -4.95138 -0.697696 174.519 0.401234 2.16842 180 7.01537e-015 178.882 177.542 6.94099 179.933 -1.03311e-006 3.61795e-006 0.0825901 -18.74 68.0233 19.5586 8.13649 25.2327 -3.48774 -176.582 -2.83724 0.727618 4.54188e-006 -4.6773e-006 -1.18306 -1.2411 -6.11053 0.111867 -1.37232e-006 -3.99963e-006 -0.0708323 18.8187 68.0358 -19.5656 -8.13649 25.2327 3.48774 
57.5279 91.754 31.2641 1.04648 -3.82088 -1.2836 -0.0271165 -1.60191 -0.0648884 -0.0539701 0.795676 -0.123601 -0.0524844 2.44074 -0.122871 -3.77944 28.0238 1.799 0.780483 -8.26538 0.318463 68.8125 6.86913 2.29122 98.5069 19.1214 -6.09162 4.46974e-006 1.56034e-007 1.49718e-006 19.9116 24.5368 -4.83764 5.54701e-006 -8.78788e-006 -2.99999 8.02911 -4.95156 0.697747 -68.0401 4.08689 -1.02338 -101.382 26.525 -3.46287 -1.50077e-006 -1.10196e-005 6.31442e-006 -21.6123 9.93483 2.01722 3.26402e-006 -1.40083e-006 3.00519 -8.02958 -4.95138 -0.697696 174.544 0.446955 2.14603 180 7.01537e-015 178.882 177.553 6.92836 179.932 -1.03311e-006 3.61795e-006 0.0822122 -18.7304 68.0109 19.548 8.13649 25.2327 -3.48774 -176.564 -2.7405 0.725058 4.54188e-006 -4.6773e-006 -1.18285 -1.23514 -6.19519 0.114358 -1.37232e-006 -3.99963e-006 -0.0739361 18.8496 68.075 -19.5983 -8.13649 25.2327 3.48774 
57.5331 91.7563 31.2494 1.03498 -3.7822 -1.29606 -0.0267616 -1.60238 -0.0656208 -0.0531809 0.795448 -0.12456 -0.0516775 2.44051 -0.123823 -3.78521 28.048 1.80603 0.792913 -8.29548 0.32453 68.8406 6.90567 2.30422 98.5076 19.0768 -5.96102 4.46974e-006 1.56034e-007 1.49718e-006 19.8893 24.299 -4.78607 5.54701e-006 -8.78788e-006 -2.99999 8.02911 -4.95156 0.697747 -68.008 4.08031 -1.0251 -101.392 26.4373 -3.53946 -1.50077e-006 -1.10196e-005 6.31442e-006 -21.6005 9.77716 1.97952 3.26402e-006 -1.40083e-006 3.00519 -8.02958 -4.95138 -0.697696 174.566 0.492533 2.12705 180 7.01538e-015 178.883 177.56 6.91577 179.932 -1.03311e-006 3.61795e-006 0.0818432 -18.7206 67.9981 19.5373 8.13649 25.2327 -3.48774 -176.546 -2.64839 0.722046 4.54188e-006 -4.6773e-006 -1.18262 -1.23015 -6.2721 0.116619 -1.37232e-006 -3.99963e-006 -0.0767234 18.8772 68.1098 -19.6275 -8.13649 25.2327 3.48774 
